<mxfile host="Electron" modified="2023-04-05T18:00:45.072Z" agent="Mozilla/5.0 (Macintosh; Intel Mac OS X 10_15_7) AppleWebKit/537.36 (KHTML, like Gecko) draw.io/21.1.2 Chrome/106.0.5249.199 Electron/21.4.3 Safari/537.36" etag="X4UoXFwp_bGMD4q8AeFn" version="21.1.2" type="device">
  <diagram name="Page-1" id="yWVIyu8cc8XqeAMlqS7R">
    <mxGraphModel dx="1114" dy="999" grid="1" gridSize="10" guides="1" tooltips="1" connect="1" arrows="1" fold="1" page="1" pageScale="1" pageWidth="850" pageHeight="1100" math="0" shadow="0">
      <root>
        <mxCell id="0" />
        <mxCell id="1" parent="0" />
        <mxCell id="-h-4fbo_lbcxWKLIKk_v-1" value="CHARACTERS SCREEN&lt;br&gt;(MAIN SCREEN)" style="verticalLabelPosition=bottom;verticalAlign=top;html=1;shadow=0;dashed=0;strokeWidth=1;shape=mxgraph.android.phone2;strokeColor=#c0c0c0;" vertex="1" parent="1">
          <mxGeometry x="70" y="140" width="200" height="390" as="geometry" />
        </mxCell>
        <mxCell id="-h-4fbo_lbcxWKLIKk_v-2" value="CHARACTER DETAIL" style="verticalLabelPosition=bottom;verticalAlign=top;html=1;shadow=0;dashed=0;strokeWidth=1;shape=mxgraph.android.phone2;strokeColor=#c0c0c0;" vertex="1" parent="1">
          <mxGeometry x="410" y="140" width="200" height="390" as="geometry" />
        </mxCell>
        <mxCell id="-h-4fbo_lbcxWKLIKk_v-3" value="LOCATION DETAIL" style="verticalLabelPosition=bottom;verticalAlign=top;html=1;shadow=0;dashed=0;strokeWidth=1;shape=mxgraph.android.phone2;strokeColor=#c0c0c0;" vertex="1" parent="1">
          <mxGeometry x="70" y="570" width="200" height="390" as="geometry" />
        </mxCell>
        <mxCell id="-h-4fbo_lbcxWKLIKk_v-4" value="char name" style="rounded=0;whiteSpace=wrap;html=1;" vertex="1" parent="1">
          <mxGeometry x="90" y="200" width="160" height="30" as="geometry" />
        </mxCell>
        <mxCell id="-h-4fbo_lbcxWKLIKk_v-5" value="SEARCH" style="rounded=0;whiteSpace=wrap;html=1;fillColor=#dae8fc;strokeColor=#6c8ebf;" vertex="1" parent="1">
          <mxGeometry x="90" y="240" width="160" height="30" as="geometry" />
        </mxCell>
        <mxCell id="-h-4fbo_lbcxWKLIKk_v-12" style="edgeStyle=orthogonalEdgeStyle;rounded=0;orthogonalLoop=1;jettySize=auto;html=1;entryX=-0.002;entryY=0.463;entryDx=0;entryDy=0;entryPerimeter=0;" edge="1" parent="1" source="-h-4fbo_lbcxWKLIKk_v-6" target="-h-4fbo_lbcxWKLIKk_v-2">
          <mxGeometry relative="1" as="geometry" />
        </mxCell>
        <mxCell id="-h-4fbo_lbcxWKLIKk_v-13" value="CLICK" style="edgeLabel;html=1;align=center;verticalAlign=middle;resizable=0;points=[];" vertex="1" connectable="0" parent="-h-4fbo_lbcxWKLIKk_v-12">
          <mxGeometry x="-0.117" y="-1" relative="1" as="geometry">
            <mxPoint as="offset" />
          </mxGeometry>
        </mxCell>
        <mxCell id="-h-4fbo_lbcxWKLIKk_v-6" value="" style="rounded=0;whiteSpace=wrap;html=1;" vertex="1" parent="1">
          <mxGeometry x="90" y="280" width="160" height="80" as="geometry" />
        </mxCell>
        <mxCell id="-h-4fbo_lbcxWKLIKk_v-7" value="" style="verticalLabelPosition=bottom;verticalAlign=top;html=1;shadow=0;dashed=0;strokeWidth=1;shape=mxgraph.android.contact_badge_normal;sketch=0;" vertex="1" parent="1">
          <mxGeometry x="100" y="300" width="40" height="40" as="geometry" />
        </mxCell>
        <mxCell id="-h-4fbo_lbcxWKLIKk_v-8" value="&amp;lt;name&amp;gt;&lt;br&gt;&amp;lt;status&amp;gt;&lt;br&gt;&amp;lt;species&amp;gt;" style="text;html=1;strokeColor=none;fillColor=none;align=center;verticalAlign=middle;whiteSpace=wrap;rounded=0;" vertex="1" parent="1">
          <mxGeometry x="150" y="290" width="90" height="60" as="geometry" />
        </mxCell>
        <mxCell id="-h-4fbo_lbcxWKLIKk_v-9" value="" style="rounded=0;whiteSpace=wrap;html=1;" vertex="1" parent="1">
          <mxGeometry x="90" y="370" width="160" height="80" as="geometry" />
        </mxCell>
        <mxCell id="-h-4fbo_lbcxWKLIKk_v-10" value="" style="verticalLabelPosition=bottom;verticalAlign=top;html=1;shadow=0;dashed=0;strokeWidth=1;shape=mxgraph.android.contact_badge_normal;sketch=0;" vertex="1" parent="1">
          <mxGeometry x="100" y="390" width="40" height="40" as="geometry" />
        </mxCell>
        <mxCell id="-h-4fbo_lbcxWKLIKk_v-11" value="&amp;lt;name&amp;gt;&lt;br&gt;&amp;lt;status&amp;gt;&lt;br&gt;&amp;lt;species&amp;gt;" style="text;html=1;strokeColor=none;fillColor=none;align=center;verticalAlign=middle;whiteSpace=wrap;rounded=0;" vertex="1" parent="1">
          <mxGeometry x="150" y="380" width="90" height="60" as="geometry" />
        </mxCell>
        <mxCell id="-h-4fbo_lbcxWKLIKk_v-15" value="" style="rounded=0;whiteSpace=wrap;html=1;" vertex="1" parent="1">
          <mxGeometry x="425" y="190" width="165" height="290" as="geometry" />
        </mxCell>
        <mxCell id="-h-4fbo_lbcxWKLIKk_v-16" value="" style="verticalLabelPosition=bottom;verticalAlign=top;html=1;shadow=0;dashed=0;strokeWidth=1;shape=mxgraph.android.contact_badge_normal;sketch=0;" vertex="1" parent="1">
          <mxGeometry x="435" y="210" width="40" height="40" as="geometry" />
        </mxCell>
        <mxCell id="-h-4fbo_lbcxWKLIKk_v-17" value="&amp;lt;name&amp;gt;&lt;br style=&quot;font-size: 16px;&quot;&gt;&amp;lt;status&amp;gt;" style="text;html=1;strokeColor=none;fillColor=none;align=center;verticalAlign=middle;whiteSpace=wrap;rounded=0;fontSize=16;" vertex="1" parent="1">
          <mxGeometry x="485" y="200" width="90" height="60" as="geometry" />
        </mxCell>
        <mxCell id="-h-4fbo_lbcxWKLIKk_v-18" value="&amp;lt;species&amp;gt;&lt;br&gt;&amp;lt;type&amp;gt;&lt;br&gt;&amp;lt;gender&amp;gt;" style="text;html=1;strokeColor=none;fillColor=none;align=left;verticalAlign=middle;whiteSpace=wrap;rounded=0;" vertex="1" parent="1">
          <mxGeometry x="435" y="260" width="145" height="50" as="geometry" />
        </mxCell>
        <mxCell id="-h-4fbo_lbcxWKLIKk_v-21" style="edgeStyle=orthogonalEdgeStyle;rounded=0;orthogonalLoop=1;jettySize=auto;html=1;entryX=1.002;entryY=0.178;entryDx=0;entryDy=0;entryPerimeter=0;" edge="1" parent="1" source="-h-4fbo_lbcxWKLIKk_v-19" target="-h-4fbo_lbcxWKLIKk_v-3">
          <mxGeometry relative="1" as="geometry" />
        </mxCell>
        <mxCell id="-h-4fbo_lbcxWKLIKk_v-22" value="CLICK" style="edgeLabel;html=1;align=center;verticalAlign=middle;resizable=0;points=[];" vertex="1" connectable="0" parent="-h-4fbo_lbcxWKLIKk_v-21">
          <mxGeometry x="-0.1493" y="-1" relative="1" as="geometry">
            <mxPoint x="1" as="offset" />
          </mxGeometry>
        </mxCell>
        <mxCell id="-h-4fbo_lbcxWKLIKk_v-19" value="&amp;lt;origin&amp;gt;" style="text;html=1;strokeColor=none;fillColor=none;align=left;verticalAlign=middle;whiteSpace=wrap;rounded=0;" vertex="1" parent="1">
          <mxGeometry x="435" y="320" width="60" height="30" as="geometry" />
        </mxCell>
        <mxCell id="-h-4fbo_lbcxWKLIKk_v-23" style="edgeStyle=orthogonalEdgeStyle;rounded=0;orthogonalLoop=1;jettySize=auto;html=1;entryX=0.998;entryY=0.39;entryDx=0;entryDy=0;entryPerimeter=0;" edge="1" parent="1" source="-h-4fbo_lbcxWKLIKk_v-20" target="-h-4fbo_lbcxWKLIKk_v-3">
          <mxGeometry relative="1" as="geometry">
            <Array as="points">
              <mxPoint x="380" y="365" />
              <mxPoint x="380" y="722" />
            </Array>
          </mxGeometry>
        </mxCell>
        <mxCell id="-h-4fbo_lbcxWKLIKk_v-24" value="CLICK" style="edgeLabel;html=1;align=center;verticalAlign=middle;resizable=0;points=[];" vertex="1" connectable="0" parent="-h-4fbo_lbcxWKLIKk_v-23">
          <mxGeometry x="0.4622" y="2" relative="1" as="geometry">
            <mxPoint as="offset" />
          </mxGeometry>
        </mxCell>
        <mxCell id="-h-4fbo_lbcxWKLIKk_v-20" value="&amp;lt;location&amp;gt;" style="text;html=1;strokeColor=none;fillColor=none;align=left;verticalAlign=middle;whiteSpace=wrap;rounded=0;" vertex="1" parent="1">
          <mxGeometry x="435" y="350" width="60" height="30" as="geometry" />
        </mxCell>
        <mxCell id="-h-4fbo_lbcxWKLIKk_v-25" value="EPISODE DETAIL" style="verticalLabelPosition=bottom;verticalAlign=top;html=1;shadow=0;dashed=0;strokeWidth=1;shape=mxgraph.android.phone2;strokeColor=#c0c0c0;" vertex="1" parent="1">
          <mxGeometry x="400" y="570" width="200" height="390" as="geometry" />
        </mxCell>
        <mxCell id="-h-4fbo_lbcxWKLIKk_v-27" style="edgeStyle=orthogonalEdgeStyle;rounded=0;orthogonalLoop=1;jettySize=auto;html=1;entryX=0.981;entryY=0.163;entryDx=0;entryDy=0;entryPerimeter=0;exitX=1;exitY=0.5;exitDx=0;exitDy=0;" edge="1" parent="1" source="-h-4fbo_lbcxWKLIKk_v-26" target="-h-4fbo_lbcxWKLIKk_v-25">
          <mxGeometry relative="1" as="geometry">
            <Array as="points">
              <mxPoint x="640" y="420" />
              <mxPoint x="640" y="634" />
            </Array>
          </mxGeometry>
        </mxCell>
        <mxCell id="-h-4fbo_lbcxWKLIKk_v-28" value="CLICK" style="edgeLabel;html=1;align=center;verticalAlign=middle;resizable=0;points=[];" vertex="1" connectable="0" parent="-h-4fbo_lbcxWKLIKk_v-27">
          <mxGeometry x="-0.247" y="2" relative="1" as="geometry">
            <mxPoint as="offset" />
          </mxGeometry>
        </mxCell>
        <mxCell id="-h-4fbo_lbcxWKLIKk_v-26" value="&lt;div style=&quot;&quot;&gt;&lt;span style=&quot;background-color: initial;&quot;&gt;EPISODES&lt;/span&gt;&lt;/div&gt;" style="text;html=1;strokeColor=#6c8ebf;fillColor=#dae8fc;align=center;verticalAlign=middle;whiteSpace=wrap;rounded=0;" vertex="1" parent="1">
          <mxGeometry x="435" y="410" width="145" height="40" as="geometry" />
        </mxCell>
        <mxCell id="-h-4fbo_lbcxWKLIKk_v-32" value="" style="rounded=0;whiteSpace=wrap;html=1;" vertex="1" parent="1">
          <mxGeometry x="425" y="620" width="155" height="120" as="geometry" />
        </mxCell>
        <mxCell id="-h-4fbo_lbcxWKLIKk_v-33" value="&amp;lt;name&amp;gt;&lt;br&gt;&amp;lt;air_date&amp;gt;&lt;br&gt;&amp;lt;episode&amp;gt;&lt;br&gt;" style="text;html=1;strokeColor=none;fillColor=none;align=left;verticalAlign=top;whiteSpace=wrap;rounded=0;" vertex="1" parent="1">
          <mxGeometry x="435" y="630" width="135" height="50" as="geometry" />
        </mxCell>
        <mxCell id="-h-4fbo_lbcxWKLIKk_v-34" value="CHARACTERS" style="text;html=1;strokeColor=#6c8ebf;fillColor=#dae8fc;align=center;verticalAlign=middle;whiteSpace=wrap;rounded=0;" vertex="1" parent="1">
          <mxGeometry x="435" y="690" width="135" height="40" as="geometry" />
        </mxCell>
        <mxCell id="-h-4fbo_lbcxWKLIKk_v-37" value="" style="rounded=0;whiteSpace=wrap;html=1;" vertex="1" parent="1">
          <mxGeometry x="425" y="750" width="155" height="120" as="geometry" />
        </mxCell>
        <mxCell id="-h-4fbo_lbcxWKLIKk_v-38" value="&amp;lt;name&amp;gt;&lt;br&gt;&amp;lt;air_date&amp;gt;&lt;br&gt;&amp;lt;episode&amp;gt;&lt;br&gt;" style="text;html=1;strokeColor=none;fillColor=none;align=left;verticalAlign=top;whiteSpace=wrap;rounded=0;" vertex="1" parent="1">
          <mxGeometry x="435" y="760" width="135" height="50" as="geometry" />
        </mxCell>
        <mxCell id="-h-4fbo_lbcxWKLIKk_v-45" style="edgeStyle=orthogonalEdgeStyle;rounded=0;orthogonalLoop=1;jettySize=auto;html=1;entryX=-0.02;entryY=0.803;entryDx=0;entryDy=0;entryPerimeter=0;" edge="1" parent="1" source="-h-4fbo_lbcxWKLIKk_v-39" target="-h-4fbo_lbcxWKLIKk_v-1">
          <mxGeometry relative="1" as="geometry">
            <mxPoint x="320" y="1030" as="targetPoint" />
            <Array as="points">
              <mxPoint x="370" y="840" />
              <mxPoint x="370" y="1030" />
              <mxPoint x="20" y="1030" />
              <mxPoint x="20" y="453" />
            </Array>
          </mxGeometry>
        </mxCell>
        <mxCell id="-h-4fbo_lbcxWKLIKk_v-46" value="CLICK" style="edgeLabel;html=1;align=center;verticalAlign=middle;resizable=0;points=[];" vertex="1" connectable="0" parent="-h-4fbo_lbcxWKLIKk_v-45">
          <mxGeometry x="-0.2197" relative="1" as="geometry">
            <mxPoint as="offset" />
          </mxGeometry>
        </mxCell>
        <mxCell id="-h-4fbo_lbcxWKLIKk_v-39" value="CHARACTERS" style="text;html=1;strokeColor=#6c8ebf;fillColor=#dae8fc;align=center;verticalAlign=middle;whiteSpace=wrap;rounded=0;" vertex="1" parent="1">
          <mxGeometry x="435" y="820" width="135" height="40" as="geometry" />
        </mxCell>
        <mxCell id="-h-4fbo_lbcxWKLIKk_v-40" value="" style="rounded=0;whiteSpace=wrap;html=1;" vertex="1" parent="1">
          <mxGeometry x="90" y="620" width="160" height="290" as="geometry" />
        </mxCell>
        <mxCell id="-h-4fbo_lbcxWKLIKk_v-41" value="&lt;font style=&quot;font-size: 17px;&quot;&gt;&amp;lt;name&amp;gt;&lt;br&gt;&amp;lt;type&amp;gt;&lt;br&gt;&amp;lt;dimension&amp;gt;&lt;br&gt;&lt;/font&gt;" style="text;html=1;strokeColor=none;fillColor=none;align=left;verticalAlign=top;whiteSpace=wrap;rounded=0;" vertex="1" parent="1">
          <mxGeometry x="100" y="630" width="140" height="100" as="geometry" />
        </mxCell>
        <mxCell id="-h-4fbo_lbcxWKLIKk_v-43" style="edgeStyle=orthogonalEdgeStyle;rounded=0;orthogonalLoop=1;jettySize=auto;html=1;entryX=-0.01;entryY=0.867;entryDx=0;entryDy=0;entryPerimeter=0;exitX=0;exitY=0.5;exitDx=0;exitDy=0;" edge="1" parent="1" source="-h-4fbo_lbcxWKLIKk_v-42" target="-h-4fbo_lbcxWKLIKk_v-1">
          <mxGeometry relative="1" as="geometry">
            <Array as="points">
              <mxPoint x="50" y="760" />
              <mxPoint x="50" y="478" />
            </Array>
          </mxGeometry>
        </mxCell>
        <mxCell id="-h-4fbo_lbcxWKLIKk_v-44" value="CLICK" style="edgeLabel;html=1;align=center;verticalAlign=middle;resizable=0;points=[];" vertex="1" connectable="0" parent="-h-4fbo_lbcxWKLIKk_v-43">
          <mxGeometry x="-0.0073" y="-4" relative="1" as="geometry">
            <mxPoint as="offset" />
          </mxGeometry>
        </mxCell>
        <mxCell id="-h-4fbo_lbcxWKLIKk_v-42" value="RESIDENTS" style="rounded=0;whiteSpace=wrap;html=1;fillColor=#dae8fc;strokeColor=#6c8ebf;" vertex="1" parent="1">
          <mxGeometry x="100" y="740" width="140" height="40" as="geometry" />
        </mxCell>
      </root>
    </mxGraphModel>
  </diagram>
</mxfile>
